<svg width="324" height="82" viewBox="0 0 324 82" fill="none" xmlns="http://www.w3.org/2000/svg">
<path d="M112.71 53.7346C110.964 53.7346 109.392 53.4352 107.996 52.8366C106.599 52.213 105.501 51.3399 104.703 50.2175C103.905 49.095 103.506 47.7854 103.506 46.2888H108.07C108.17 47.4112 108.607 48.3342 109.38 49.0576C110.178 49.7809 111.288 50.1426 112.71 50.1426C114.182 50.1426 115.329 49.7934 116.152 49.095C116.975 48.3716 117.387 47.4487 117.387 46.3262C117.387 45.4531 117.125 44.7422 116.601 44.1935C116.102 43.6447 115.466 43.2206 114.693 42.9213C113.945 42.622 112.897 42.2977 111.55 41.9485C109.854 41.4995 108.469 41.0505 107.397 40.6015C106.349 40.1276 105.451 39.4042 104.703 38.4314C103.955 37.4585 103.58 36.1615 103.58 34.5401C103.58 33.0434 103.955 31.7339 104.703 30.6114C105.451 29.4889 106.499 28.6283 107.846 28.0297C109.193 27.431 110.752 27.1317 112.523 27.1317C115.042 27.1317 117.1 27.7678 118.697 29.0399C120.318 30.2871 121.216 32.0083 121.391 34.2033H116.676C116.601 33.2555 116.152 32.4448 115.329 31.7713C114.506 31.0978 113.421 30.7611 112.074 30.7611C110.852 30.7611 109.854 31.0729 109.081 31.6965C108.307 32.3201 107.921 33.218 107.921 34.3904C107.921 35.1886 108.158 35.8496 108.632 36.3735C109.13 36.8724 109.754 37.2715 110.502 37.5708C111.251 37.8701 112.273 38.1944 113.571 38.5436C115.292 39.0175 116.689 39.4915 117.761 39.9654C118.859 40.4394 119.782 41.1752 120.53 42.173C121.303 43.1458 121.69 44.4554 121.69 46.1017C121.69 47.4237 121.328 48.6709 120.605 49.8433C119.906 51.0157 118.871 51.9635 117.499 52.6869C116.152 53.3854 114.556 53.7346 112.71 53.7346ZM135.665 53.8094C133.72 53.8094 131.961 53.3729 130.39 52.4998C128.818 51.6018 127.583 50.3546 126.685 48.7582C125.787 47.1369 125.338 45.266 125.338 43.1458C125.338 41.0505 125.8 39.1922 126.723 37.5708C127.646 35.9494 128.905 34.7022 130.502 33.8292C132.098 32.9561 133.882 32.5196 135.852 32.5196C137.823 32.5196 139.607 32.9561 141.203 33.8292C142.799 34.7022 144.059 35.9494 144.982 37.5708C145.905 39.1922 146.366 41.0505 146.366 43.1458C146.366 45.2411 145.892 47.0994 144.945 48.7208C143.997 50.3422 142.7 51.6018 141.053 52.4998C139.432 53.3729 137.636 53.8094 135.665 53.8094ZM135.665 50.1052C136.763 50.1052 137.786 49.8433 138.733 49.3195C139.706 48.7956 140.492 48.0099 141.091 46.9622C141.689 45.9146 141.989 44.6424 141.989 43.1458C141.989 41.6492 141.702 40.3895 141.128 39.3668C140.554 38.3191 139.794 37.5334 138.846 37.0095C137.898 36.4857 136.875 36.2238 135.778 36.2238C134.68 36.2238 133.657 36.4857 132.709 37.0095C131.787 37.5334 131.051 38.3191 130.502 39.3668C129.953 40.3895 129.679 41.6492 129.679 43.1458C129.679 45.3658 130.24 47.087 131.362 48.3092C132.51 49.5065 133.944 50.1052 135.665 50.1052ZM149.161 43.1458C149.161 41.0255 149.585 39.1672 150.433 37.5708C151.306 35.9494 152.504 34.7022 154.025 33.8292C155.547 32.9561 157.293 32.5196 159.264 32.5196C161.758 32.5196 163.816 33.1183 165.437 34.3156C167.084 35.488 168.194 37.1717 168.767 39.3668H164.165C163.791 38.3441 163.192 37.5458 162.369 36.9721C161.546 36.3984 160.511 36.1116 159.264 36.1116C157.517 36.1116 156.121 36.7352 155.073 37.9824C154.05 39.2046 153.539 40.9258 153.539 43.1458C153.539 45.3658 154.05 47.0994 155.073 48.3466C156.121 49.5938 157.517 50.2175 159.264 50.2175C161.733 50.2175 163.367 49.1324 164.165 46.9622H168.767C168.169 49.0576 167.046 50.7288 165.4 51.976C163.753 53.1983 161.708 53.8094 159.264 53.8094C157.293 53.8094 155.547 53.3729 154.025 52.4998C152.504 51.6018 151.306 50.3546 150.433 48.7582C149.585 47.1369 149.161 45.266 149.161 43.1458ZM175.188 30.125C174.415 30.125 173.766 29.8631 173.243 29.3392C172.719 28.8154 172.457 28.1669 172.457 27.3936C172.457 26.6203 172.719 25.9718 173.243 25.448C173.766 24.9241 174.415 24.6622 175.188 24.6622C175.937 24.6622 176.573 24.9241 177.096 25.448C177.62 25.9718 177.882 26.6203 177.882 27.3936C177.882 28.1669 177.62 28.8154 177.096 29.3392C176.573 29.8631 175.937 30.125 175.188 30.125ZM177.284 32.8564V53.4727H173.018V32.8564H177.284ZM181.462 43.071C181.462 41.0006 181.886 39.1672 182.734 37.5708C183.607 35.9744 184.779 34.7396 186.251 33.8666C187.748 32.9686 189.394 32.5196 191.19 32.5196C192.811 32.5196 194.221 32.8439 195.418 33.4924C196.64 34.116 197.613 34.9018 198.337 35.8496V32.8564H202.639V53.4727H198.337V50.4045C197.613 51.3774 196.628 52.188 195.381 52.8366C194.133 53.4851 192.712 53.8094 191.115 53.8094C189.344 53.8094 187.723 53.3604 186.251 52.4624C184.779 51.5395 183.607 50.2673 182.734 48.646C181.886 46.9997 181.462 45.1413 181.462 43.071ZM198.337 43.1458C198.337 41.724 198.037 40.4893 197.439 39.4416C196.865 38.3939 196.104 37.5957 195.156 37.047C194.208 36.4982 193.186 36.2238 192.088 36.2238C190.99 36.2238 189.968 36.4982 189.02 37.047C188.072 37.5708 187.299 38.3565 186.7 39.4042C186.126 40.4269 185.84 41.6492 185.84 43.071C185.84 44.4928 186.126 45.74 186.7 46.8126C187.299 47.8852 188.072 48.7083 189.02 49.282C189.993 49.8308 191.015 50.1052 192.088 50.1052C193.186 50.1052 194.208 49.8308 195.156 49.282C196.104 48.7333 196.865 47.9351 197.439 46.8874C198.037 45.8148 198.337 44.5676 198.337 43.1458ZM212.507 25.7847V53.4727H208.242V25.7847H212.507ZM236.395 53.7346C234.649 53.7346 233.078 53.4352 231.681 52.8366C230.284 52.213 229.186 51.3399 228.388 50.2175C227.59 49.095 227.191 47.7854 227.191 46.2888H231.756C231.855 47.4112 232.292 48.3342 233.065 49.0576C233.863 49.7809 234.973 50.1426 236.395 50.1426C237.867 50.1426 239.014 49.7934 239.837 49.095C240.661 48.3716 241.072 47.4487 241.072 46.3262C241.072 45.4531 240.81 44.7422 240.286 44.1935C239.788 43.6447 239.152 43.2206 238.378 42.9213C237.63 42.622 236.582 42.2977 235.235 41.9485C233.539 41.4995 232.155 41.0505 231.082 40.6015C230.034 40.1276 229.136 39.4042 228.388 38.4314C227.64 37.4585 227.266 36.1615 227.266 34.5401C227.266 33.0434 227.64 31.7339 228.388 30.6114C229.136 29.4889 230.184 28.6283 231.531 28.0297C232.878 27.431 234.437 27.1317 236.208 27.1317C238.727 27.1317 240.785 27.7678 242.382 29.0399C244.003 30.2871 244.901 32.0083 245.076 34.2033H240.361C240.286 33.2555 239.837 32.4448 239.014 31.7713C238.191 31.0978 237.106 30.7611 235.759 30.7611C234.537 30.7611 233.539 31.0729 232.766 31.6965C231.993 32.3201 231.606 33.218 231.606 34.3904C231.606 35.1886 231.843 35.8496 232.317 36.3735C232.816 36.8724 233.439 37.2715 234.188 37.5708C234.936 37.8701 235.959 38.1944 237.256 38.5436C238.977 39.0175 240.374 39.4915 241.446 39.9654C242.544 40.4394 243.467 41.1752 244.215 42.173C244.988 43.1458 245.375 44.4554 245.375 46.1017C245.375 47.4237 245.013 48.6709 244.29 49.8433C243.592 51.0157 242.556 51.9635 241.184 52.6869C239.837 53.3854 238.241 53.7346 236.395 53.7346ZM255.384 36.3361V47.748C255.384 48.5213 255.559 49.0825 255.908 49.4317C256.282 49.756 256.906 49.9181 257.779 49.9181H260.398V53.4727H257.031C255.11 53.4727 253.638 53.0237 252.616 52.1257C251.593 51.2277 251.082 49.7685 251.082 47.748V36.3361H248.65V32.8564H251.082V27.7303H255.384V32.8564H260.398V36.3361H255.384ZM273.272 53.8094C271.326 53.8094 269.568 53.3729 267.996 52.4998C266.425 51.6018 265.19 50.3546 264.292 48.7582C263.394 47.1369 262.945 45.266 262.945 43.1458C262.945 41.0505 263.407 39.1922 264.33 37.5708C265.252 35.9494 266.512 34.7022 268.109 33.8292C269.705 32.9561 271.488 32.5196 273.459 32.5196C275.43 32.5196 277.213 32.9561 278.81 33.8292C280.406 34.7022 281.666 35.9494 282.589 37.5708C283.512 39.1922 283.973 41.0505 283.973 43.1458C283.973 45.2411 283.499 47.0994 282.551 48.7208C281.603 50.3422 280.306 51.6018 278.66 52.4998C277.039 53.3729 275.243 53.8094 273.272 53.8094ZM273.272 50.1052C274.37 50.1052 275.392 49.8433 276.34 49.3195C277.313 48.7956 278.099 48.0099 278.697 46.9622C279.296 45.9146 279.595 44.6424 279.595 43.1458C279.595 41.6492 279.308 40.3895 278.735 39.3668C278.161 38.3191 277.4 37.5334 276.452 37.0095C275.504 36.4857 274.482 36.2238 273.384 36.2238C272.287 36.2238 271.264 36.4857 270.316 37.0095C269.393 37.5334 268.657 38.3191 268.109 39.3668C267.56 40.3895 267.285 41.6492 267.285 43.1458C267.285 45.3658 267.847 47.087 268.969 48.3092C270.117 49.5065 271.551 50.1052 273.272 50.1052ZM292.455 35.8496C293.079 34.802 293.902 33.9913 294.925 33.4176C295.972 32.8189 297.207 32.5196 298.629 32.5196V36.9347H297.544C295.872 36.9347 294.6 37.3588 293.727 38.2069C292.879 39.055 292.455 40.5267 292.455 42.622V53.4727H288.19V32.8564H292.455V35.8496ZM321.445 42.6594C321.445 43.4327 321.395 44.1311 321.295 44.7547H305.543C305.668 46.401 306.279 47.723 307.376 48.7208C308.474 49.7186 309.821 50.2175 311.417 50.2175C313.712 50.2175 315.333 49.2571 316.281 47.3364H320.883C320.26 49.2322 319.125 50.7912 317.479 52.0134C315.857 53.2107 313.837 53.8094 311.417 53.8094C309.447 53.8094 307.676 53.3729 306.104 52.4998C304.558 51.6018 303.335 50.3546 302.437 48.7582C301.564 47.1369 301.128 45.266 301.128 43.1458C301.128 41.0255 301.552 39.1672 302.4 37.5708C303.273 35.9494 304.483 34.7022 306.029 33.8292C307.601 32.9561 309.397 32.5196 311.417 32.5196C313.363 32.5196 315.096 32.9437 316.618 33.7918C318.14 34.6399 319.324 35.8372 320.173 37.3837C321.021 38.9053 321.445 40.6639 321.445 42.6594ZM316.992 41.3124C316.967 39.7409 316.406 38.4813 315.308 37.5334C314.211 36.5855 312.851 36.1116 311.23 36.1116C309.758 36.1116 308.499 36.5855 307.451 37.5334C306.403 38.4563 305.78 39.716 305.58 41.3124H316.992Z" fill="white"/>
<rect opacity="0.2" width="74.8323" height="74.8323" rx="37.4161" fill="white"/>
<rect x="32.7393" y="31.1797" width="49.8882" height="49.8882" rx="24.9441" fill="white"/>
</svg>
