<svg width="208" height="52" viewBox="0 0 208 52" fill="none" xmlns="http://www.w3.org/2000/svg">
<path d="M72.296 34.168C71.176 34.168 70.168 33.976 69.272 33.592C68.376 33.192 67.672 32.632 67.16 31.912C66.648 31.192 66.392 30.352 66.392 29.392H69.32C69.384 30.112 69.664 30.704 70.16 31.168C70.672 31.632 71.384 31.864 72.296 31.864C73.24 31.864 73.976 31.64 74.504 31.192C75.032 30.728 75.296 30.136 75.296 29.416C75.296 28.856 75.128 28.4 74.792 28.048C74.472 27.696 74.064 27.424 73.568 27.232C73.088 27.04 72.416 26.832 71.552 26.608C70.464 26.32 69.576 26.032 68.888 25.744C68.216 25.44 67.64 24.976 67.16 24.352C66.68 23.728 66.44 22.896 66.44 21.856C66.44 20.896 66.68 20.056 67.16 19.336C67.64 18.616 68.312 18.064 69.176 17.68C70.04 17.296 71.04 17.104 72.176 17.104C73.792 17.104 75.112 17.512 76.136 18.328C77.176 19.128 77.752 20.232 77.864 21.64H74.84C74.792 21.032 74.504 20.512 73.976 20.08C73.448 19.648 72.752 19.432 71.888 19.432C71.104 19.432 70.464 19.632 69.968 20.032C69.472 20.432 69.224 21.008 69.224 21.76C69.224 22.272 69.376 22.696 69.68 23.032C70 23.352 70.4 23.608 70.88 23.8C71.36 23.992 72.016 24.2 72.848 24.424C73.952 24.728 74.848 25.032 75.536 25.336C76.24 25.64 76.832 26.112 77.312 26.752C77.808 27.376 78.056 28.216 78.056 29.272C78.056 30.12 77.824 30.92 77.36 31.672C76.912 32.424 76.248 33.032 75.368 33.496C74.504 33.944 73.48 34.168 72.296 34.168ZM87.0204 34.216C85.7724 34.216 84.6444 33.936 83.6364 33.376C82.6284 32.8 81.8364 32 81.2604 30.976C80.6844 29.936 80.3964 28.736 80.3964 27.376C80.3964 26.032 80.6924 24.84 81.2844 23.8C81.8764 22.76 82.6844 21.96 83.7084 21.4C84.7324 20.84 85.8764 20.56 87.1404 20.56C88.4044 20.56 89.5484 20.84 90.5724 21.4C91.5964 21.96 92.4044 22.76 92.9964 23.8C93.5884 24.84 93.8844 26.032 93.8844 27.376C93.8844 28.72 93.5804 29.912 92.9724 30.952C92.3644 31.992 91.5324 32.8 90.4764 33.376C89.4364 33.936 88.2844 34.216 87.0204 34.216ZM87.0204 31.84C87.7244 31.84 88.3804 31.672 88.9884 31.336C89.6124 31 90.1164 30.496 90.5004 29.824C90.8844 29.152 91.0764 28.336 91.0764 27.376C91.0764 26.416 90.8924 25.608 90.5244 24.952C90.1564 24.28 89.6684 23.776 89.0604 23.44C88.4524 23.104 87.7964 22.936 87.0924 22.936C86.3884 22.936 85.7324 23.104 85.1244 23.44C84.5324 23.776 84.0604 24.28 83.7084 24.952C83.3564 25.608 83.1804 26.416 83.1804 27.376C83.1804 28.8 83.5404 29.904 84.2604 30.688C84.9964 31.456 85.9164 31.84 87.0204 31.84ZM95.6771 27.376C95.6771 26.016 95.9491 24.824 96.4931 23.8C97.0531 22.76 97.8211 21.96 98.7971 21.4C99.7731 20.84 100.893 20.56 102.157 20.56C103.757 20.56 105.077 20.944 106.117 21.712C107.173 22.464 107.885 23.544 108.253 24.952H105.301C105.061 24.296 104.677 23.784 104.149 23.416C103.621 23.048 102.957 22.864 102.157 22.864C101.037 22.864 100.141 23.264 99.4691 24.064C98.8131 24.848 98.4851 25.952 98.4851 27.376C98.4851 28.8 98.8131 29.912 99.4691 30.712C100.141 31.512 101.037 31.912 102.157 31.912C103.741 31.912 104.789 31.216 105.301 29.824H108.253C107.869 31.168 107.149 32.24 106.093 33.04C105.037 33.824 103.725 34.216 102.157 34.216C100.893 34.216 99.7731 33.936 98.7971 33.376C97.8211 32.8 97.0531 32 96.4931 30.976C95.9491 29.936 95.6771 28.736 95.6771 27.376ZM112.372 19.024C111.876 19.024 111.46 18.856 111.124 18.52C110.788 18.184 110.62 17.768 110.62 17.272C110.62 16.776 110.788 16.36 111.124 16.024C111.46 15.688 111.876 15.52 112.372 15.52C112.852 15.52 113.26 15.688 113.596 16.024C113.932 16.36 114.1 16.776 114.1 17.272C114.1 17.768 113.932 18.184 113.596 18.52C113.26 18.856 112.852 19.024 112.372 19.024ZM113.716 20.776V34H110.98V20.776H113.716ZM116.396 27.328C116.396 26 116.668 24.824 117.212 23.8C117.772 22.776 118.524 21.984 119.468 21.424C120.428 20.848 121.484 20.56 122.636 20.56C123.676 20.56 124.58 20.768 125.348 21.184C126.132 21.584 126.756 22.088 127.22 22.696V20.776H129.98V34H127.22V32.032C126.756 32.656 126.124 33.176 125.324 33.592C124.524 34.008 123.612 34.216 122.588 34.216C121.452 34.216 120.412 33.928 119.468 33.352C118.524 32.76 117.772 31.944 117.212 30.904C116.668 29.848 116.396 28.656 116.396 27.328ZM127.22 27.376C127.22 26.464 127.028 25.672 126.644 25C126.276 24.328 125.788 23.816 125.18 23.464C124.572 23.112 123.916 22.936 123.212 22.936C122.508 22.936 121.852 23.112 121.244 23.464C120.636 23.8 120.14 24.304 119.756 24.976C119.388 25.632 119.204 26.416 119.204 27.328C119.204 28.24 119.388 29.04 119.756 29.728C120.14 30.416 120.636 30.944 121.244 31.312C121.868 31.664 122.524 31.84 123.212 31.84C123.916 31.84 124.572 31.664 125.18 31.312C125.788 30.96 126.276 30.448 126.644 29.776C127.028 29.088 127.22 28.288 127.22 27.376ZM136.309 16.24V34H133.573V16.24H136.309ZM151.632 34.168C150.512 34.168 149.504 33.976 148.608 33.592C147.712 33.192 147.008 32.632 146.496 31.912C145.984 31.192 145.728 30.352 145.728 29.392H148.656C148.72 30.112 149 30.704 149.496 31.168C150.008 31.632 150.72 31.864 151.632 31.864C152.576 31.864 153.312 31.64 153.84 31.192C154.368 30.728 154.632 30.136 154.632 29.416C154.632 28.856 154.464 28.4 154.128 28.048C153.808 27.696 153.4 27.424 152.904 27.232C152.424 27.04 151.752 26.832 150.888 26.608C149.8 26.32 148.912 26.032 148.224 25.744C147.552 25.44 146.976 24.976 146.496 24.352C146.016 23.728 145.776 22.896 145.776 21.856C145.776 20.896 146.016 20.056 146.496 19.336C146.976 18.616 147.648 18.064 148.512 17.68C149.376 17.296 150.376 17.104 151.512 17.104C153.128 17.104 154.448 17.512 155.472 18.328C156.512 19.128 157.088 20.232 157.2 21.64H154.176C154.128 21.032 153.84 20.512 153.312 20.08C152.784 19.648 152.088 19.432 151.224 19.432C150.44 19.432 149.8 19.632 149.304 20.032C148.808 20.432 148.56 21.008 148.56 21.76C148.56 22.272 148.712 22.696 149.016 23.032C149.336 23.352 149.736 23.608 150.216 23.8C150.696 23.992 151.352 24.2 152.184 24.424C153.288 24.728 154.184 25.032 154.872 25.336C155.576 25.64 156.168 26.112 156.648 26.752C157.144 27.376 157.392 28.216 157.392 29.272C157.392 30.12 157.16 30.92 156.696 31.672C156.248 32.424 155.584 33.032 154.704 33.496C153.84 33.944 152.816 34.168 151.632 34.168ZM163.812 23.008V30.328C163.812 30.824 163.924 31.184 164.148 31.408C164.388 31.616 164.788 31.72 165.348 31.72H167.028V34H164.868C163.636 34 162.692 33.712 162.036 33.136C161.38 32.56 161.052 31.624 161.052 30.328V23.008H159.492V20.776H161.052V17.488H163.812V20.776H167.028V23.008H163.812ZM175.286 34.216C174.038 34.216 172.91 33.936 171.902 33.376C170.894 32.8 170.102 32 169.526 30.976C168.95 29.936 168.662 28.736 168.662 27.376C168.662 26.032 168.958 24.84 169.55 23.8C170.142 22.76 170.95 21.96 171.974 21.4C172.998 20.84 174.142 20.56 175.406 20.56C176.67 20.56 177.814 20.84 178.838 21.4C179.862 21.96 180.67 22.76 181.262 23.8C181.854 24.84 182.15 26.032 182.15 27.376C182.15 28.72 181.846 29.912 181.238 30.952C180.63 31.992 179.798 32.8 178.742 33.376C177.702 33.936 176.55 34.216 175.286 34.216ZM175.286 31.84C175.99 31.84 176.646 31.672 177.254 31.336C177.878 31 178.382 30.496 178.766 29.824C179.15 29.152 179.342 28.336 179.342 27.376C179.342 26.416 179.158 25.608 178.79 24.952C178.422 24.28 177.934 23.776 177.326 23.44C176.718 23.104 176.062 22.936 175.358 22.936C174.654 22.936 173.998 23.104 173.39 23.44C172.798 23.776 172.326 24.28 171.974 24.952C171.622 25.608 171.446 26.416 171.446 27.376C171.446 28.8 171.806 29.904 172.526 30.688C173.262 31.456 174.182 31.84 175.286 31.84ZM187.591 22.696C187.991 22.024 188.519 21.504 189.175 21.136C189.847 20.752 190.639 20.56 191.551 20.56V23.392H190.855C189.783 23.392 188.967 23.664 188.407 24.208C187.863 24.752 187.591 25.696 187.591 27.04V34H184.855V20.776H187.591V22.696ZM206.186 27.064C206.186 27.56 206.154 28.008 206.09 28.408H195.986C196.066 29.464 196.458 30.312 197.162 30.952C197.866 31.592 198.73 31.912 199.754 31.912C201.226 31.912 202.266 31.296 202.874 30.064H205.826C205.426 31.28 204.698 32.28 203.642 33.064C202.602 33.832 201.306 34.216 199.754 34.216C198.49 34.216 197.354 33.936 196.346 33.376C195.354 32.8 194.57 32 193.994 30.976C193.434 29.936 193.154 28.736 193.154 27.376C193.154 26.016 193.426 24.824 193.97 23.8C194.53 22.76 195.306 21.96 196.298 21.4C197.306 20.84 198.458 20.56 199.754 20.56C201.002 20.56 202.114 20.832 203.09 21.376C204.066 21.92 204.826 22.688 205.37 23.68C205.914 24.656 206.186 25.784 206.186 27.064ZM203.33 26.2C203.314 25.192 202.954 24.384 202.25 23.776C201.546 23.168 200.674 22.864 199.634 22.864C198.69 22.864 197.882 23.168 197.21 23.776C196.538 24.368 196.138 25.176 196.01 26.2H203.33Z" fill="#FA7275"/>
<rect opacity="0.2" width="48" height="48" rx="24" fill="#FA7275"/>
<rect x="21" y="20" width="32" height="32" rx="16" fill="#FA7275"/>
</svg>
